<?xml version="1.0" standalone="no"?>
<!DOCTYPE svg PUBLIC "-//W3C//DTD SVG 20010904//EN"
 "http://www.w3.org/TR/2001/REC-SVG-20010904/DTD/svg10.dtd">
<svg version="1.0" xmlns="http://www.w3.org/2000/svg"
 width="300.000000pt" height="259.000000pt" viewBox="0 0 300.000000 259.000000"
 preserveAspectRatio="xMidYMid meet">
<metadata>
Created by potrace 1.16, written by Peter Selinger 2001-2019
</metadata>
<g transform="translate(0.000000,259.000000) scale(0.100000,-0.100000)"
fill="#000000" stroke="none">
<path d="M1408 2305 c-74 -20 -169 -71 -225 -120 -39 -34 -64 -69 -95 -132
l-43 -86 -5 -566 -5 -566 -28 -47 c-37 -63 -74 -82 -163 -84 -62 -1 -75 2
-110 26 -21 15 -38 32 -37 39 2 6 -1 11 -5 11 -5 0 -15 12 -23 28 -11 22 -15
116 -17 490 l-3 463 -152 -3 -152 -3 -2 -470 c-3 -514 -2 -516 57 -633 35 -68
131 -172 160 -172 5 0 10 -4 10 -8 0 -10 88 -54 115 -58 11 -1 40 -7 65 -13
61 -14 134 -13 203 3 31 7 57 12 57 10 0 -5 80 38 130 69 43 27 141 127 124
127 -4 0 0 8 8 18 25 27 59 102 53 112 -3 6 -2 10 3 10 12 0 12 -19 20 605 5
303 9 551 10 552 59 77 118 110 178 98 40 -7 101 -57 116 -94 6 -16 9 -201 8
-493 l-1 -468 160 0 160 0 3 463 c3 458 3 462 26 504 57 108 214 105 268 -5
18 -34 19 -73 22 -505 l3 -468 152 3 152 3 3 400 c4 459 -7 623 -43 696 -13
25 -30 51 -39 58 -9 7 -14 17 -11 21 5 8 -50 61 -105 101 -19 14 -66 39 -105
55 -60 25 -82 29 -165 29 -83 0 -104 -4 -165 -29 -39 -16 -86 -42 -106 -58
-43 -33 -50 -34 -66 -10 -15 24 -133 81 -203 98 -67 17 -130 16 -192 -1z"/>
</g>
</svg>
